<?xml version="1.0" standalone="no"?><!DOCTYPE svg PUBLIC "-//W3C//DTD SVG 1.1//EN" "http://www.w3.org/Graphics/SVG/1.1/DTD/svg11.dtd"><svg t="1770717236195" class="icon" viewBox="0 0 1024 1024" version="1.1" xmlns="http://www.w3.org/2000/svg" p-id="16285" xmlns:xlink="http://www.w3.org/1999/xlink" width="40" height="40"><path d="M524.47744 938.624H361.53344a46.272 46.272 0 0 1-46.784-41.664L309.05344 821.12a362.304 362.304 0 0 1-88.384-48.832l-71.424 33.216a48.064 48.064 0 0 1-20.352 4.48 47.36 47.36 0 0 1-40.704-22.464L6.78144 652.416a43.904 43.904 0 0 1 14.336-59.584L86.78144 550.4a334.08 334.08 0 0 1 0-97.664L21.11744 409.6a43.84 43.84 0 0 1-14.336-59.584l81.408-135.104a47.424 47.424 0 0 1 40.704-22.464 48.064 48.064 0 0 1 20.352 4.48l71.424 33.216a363.392 363.392 0 0 1 88.384-48.832l5.696-75.776A46.336 46.336 0 0 1 361.53344 63.744h162.944a46.592 46.592 0 0 1 46.784 41.728l5.696 75.84a363.648 363.648 0 0 1 88.32 49.088l71.36-33.216a48.128 48.128 0 0 1 60.928 17.984l81.408 135.104a43.904 43.904 0 0 1-14.272 59.584l-65.6 42.688c1.152 7.808 1.984 15.424 2.624 23.168a288.896 288.896 0 0 0-72.832 10.752 269.952 269.952 0 0 0-4.8-37.312 44.032 44.032 0 0 1 19.712-45.76l59.264-38.4-56.512-93.824-64.64 29.632a49.024 49.024 0 0 1-20.48 4.544 47.744 47.744 0 0 1-30.72-10.944 286.912 286.912 0 0 0-94.336-52.224 45.248 45.248 0 0 1-31.488-39.232L499.70944 134.4H386.68544l-5.184 68.48a44.8 44.8 0 0 1-31.232 39.232 286.912 286.912 0 0 0-94.592 52.288 47.872 47.872 0 0 1-30.72 11.072 48.832 48.832 0 0 1-20.48-4.672l-64-29.76L83.70944 364.8l59.328 38.4a43.968 43.968 0 0 1 19.712 45.696 265.088 265.088 0 0 0 0 104.512 44.096 44.096 0 0 1-19.712 45.76l-59.328 38.4 56.768 94.144 64-30.016a48.832 48.832 0 0 1 20.416-4.48 47.936 47.936 0 0 1 30.72 11.072 286.912 286.912 0 0 0 94.336 52.224 44.8 44.8 0 0 1 31.232 39.232l5.184 68.48h113.344l5.184-68.48a44.8 44.8 0 0 1 16.512-31.104 280.128 280.128 0 0 0 45.76 144.064 47.36 47.36 0 0 1-42.688 25.92z m-81.6-249.92A189.12 189.12 0 0 1 308.98944 633.6a185.92 185.92 0 0 1 0-265.024 190.784 190.784 0 0 1 267.84 0 185.216 185.216 0 0 1 55.488 132.48 189.12 189.12 0 0 1-3.456 36.032 283.072 283.072 0 0 0-91.584 126.976 190.656 190.656 0 0 1-94.464 24.64z m0-305.216a117.76 117.76 0 1 0 119.04 117.76 118.592 118.592 0 0 0-119.04-117.76z" fill="#1296db" p-id="16286"></path><path d="M815.22944 975.104a209.28 209.28 0 1 1 209.28-209.28 209.536 209.536 0 0 1-209.28 209.28z m-111.296-241.856l-28.8 30.592 104.384 107.072 175.808-180.48-28.928-29.696-147.2 150.08z" fill="#1296db" p-id="16287"></path></svg>